<svg width="704" height="314" viewBox="0 0 704 314" fill="none" xmlns="http://www.w3.org/2000/svg">
<path d="M352 275C546.404 275 704 266.941 704 257C704 247.059 546.404 239 352 239C157.596 239 0 247.059 0 257C0 266.941 157.596 275 352 275Z" fill="#F2F2F2"/>
<path d="M250.863 181.815C250.016 181.489 249.287 180.914 248.774 180.164C248.262 179.415 247.989 178.527 247.993 177.619V130.586C247.991 128.994 247.358 127.468 246.233 126.342C245.107 125.216 243.581 124.583 241.989 124.581H232.357C228.378 124.577 224.563 122.994 221.749 120.18C218.935 117.366 217.352 113.551 217.348 109.572V15.0093C217.352 11.0299 218.935 7.21485 221.749 4.40103C224.563 1.58721 228.378 0.00446514 232.357 0H572.082C576.062 0.00446514 579.877 1.58721 582.691 4.40103C585.505 7.21485 587.087 11.0299 587.092 15.0093V109.572C587.087 113.551 585.505 117.366 582.691 120.18C579.877 122.994 576.062 124.577 572.082 124.581H309.863C309.031 124.582 308.207 124.756 307.446 125.091C306.684 125.426 306 125.915 305.437 126.528L255.815 180.662C255.396 181.122 254.885 181.49 254.316 181.743C253.746 181.995 253.131 182.125 252.508 182.126C251.945 182.125 251.387 182.02 250.863 181.815V181.815Z" fill="white"/>
<path d="M250.863 181.815C250.016 181.489 249.287 180.914 248.774 180.164C248.262 179.415 247.989 178.527 247.993 177.619V130.586C247.991 128.994 247.358 127.468 246.233 126.342C245.107 125.216 243.581 124.583 241.989 124.581H232.357C228.378 124.577 224.563 122.994 221.749 120.18C218.935 117.366 217.352 113.551 217.348 109.572V15.0093C217.352 11.0299 218.935 7.21485 221.749 4.40103C224.563 1.58721 228.378 0.00446514 232.357 0H572.082C576.062 0.00446514 579.877 1.58721 582.691 4.40103C585.505 7.21485 587.087 11.0299 587.092 15.0093V109.572C587.087 113.551 585.505 117.366 582.691 120.18C579.877 122.994 576.062 124.577 572.082 124.581H309.863C309.031 124.582 308.207 124.756 307.446 125.091C306.684 125.426 306 125.915 305.437 126.528L255.815 180.662C255.396 181.122 254.885 181.49 254.316 181.743C253.746 181.995 253.131 182.125 252.508 182.126C251.945 182.125 251.387 182.02 250.863 181.815V181.815ZM232.357 2C228.908 2.00389 225.601 3.37576 223.163 5.81464C220.724 8.25351 219.352 11.5602 219.348 15.0093V109.572C219.352 113.021 220.724 116.328 223.163 118.766C225.601 121.205 228.908 122.577 232.357 122.581H241.989C244.111 122.583 246.146 123.428 247.646 124.928C249.147 126.429 249.991 128.464 249.993 130.586V177.619C249.993 178.123 250.146 178.616 250.43 179.032C250.715 179.448 251.119 179.768 251.589 179.951C252.059 180.134 252.573 180.171 253.064 180.056C253.555 179.942 254 179.682 254.34 179.31L303.963 125.177C304.713 124.36 305.625 123.707 306.641 123.26C307.656 122.814 308.753 122.582 309.863 122.581H572.082C575.532 122.577 578.838 121.205 581.277 118.766C583.716 116.328 585.088 113.021 585.092 109.572V15.0093C585.088 11.5602 583.716 8.25351 581.277 5.81464C578.838 3.37577 575.532 2.0039 572.082 2H232.357Z" fill="#3F3D56"/>
<path d="M305.566 47.9434H291.44L288.755 56H280.188L294.744 16.8984H302.209L316.846 56H308.279L305.566 47.9434ZM293.616 41.4175H303.391L298.477 26.7812L293.616 41.4175ZM328.179 56H320.391V14.75H328.179V56ZM333.389 41.2026C333.389 38.3201 333.944 35.751 335.054 33.4951C336.164 31.2393 337.757 29.4937 339.834 28.2583C341.929 27.0229 344.355 26.4053 347.112 26.4053C351.033 26.4053 354.229 27.6048 356.699 30.0039C359.188 32.403 360.575 35.6615 360.862 39.7793L360.916 41.7666C360.916 46.2246 359.671 49.8053 357.183 52.5088C354.694 55.1943 351.355 56.5371 347.166 56.5371C342.976 56.5371 339.628 55.1943 337.122 52.5088C334.633 49.8232 333.389 46.1709 333.389 41.5518V41.2026ZM341.15 41.7666C341.15 44.5238 341.669 46.6364 342.708 48.1045C343.746 49.5547 345.232 50.2798 347.166 50.2798C349.045 50.2798 350.514 49.5636 351.57 48.1313C352.626 46.6812 353.154 44.3716 353.154 41.2026C353.154 38.4992 352.626 36.4045 351.57 34.9185C350.514 33.4325 349.028 32.6895 347.112 32.6895C345.214 32.6895 343.746 33.4325 342.708 34.9185C341.669 36.3866 341.15 38.6693 341.15 41.7666Z" fill="#473F97"/>
<path d="M283.491 107V67.8984H295.522C298.96 67.8984 302.03 68.6772 304.734 70.2349C307.455 71.7746 309.577 73.9767 311.099 76.8413C312.62 79.688 313.381 82.9285 313.381 86.563V88.3623C313.381 91.9967 312.629 95.2284 311.125 98.0571C309.639 100.886 307.536 103.079 304.814 104.637C302.093 106.194 299.023 106.982 295.603 107H283.491ZM291.548 74.4243V100.528H295.442C298.593 100.528 301.001 99.4984 302.666 97.4395C304.331 95.3805 305.181 92.4354 305.217 88.604V86.5361C305.217 82.5615 304.394 79.5537 302.747 77.5127C301.099 75.4538 298.691 74.4243 295.522 74.4243H291.548ZM317.544 92.2026C317.544 89.3201 318.099 86.751 319.209 84.4951C320.319 82.2393 321.912 80.4937 323.989 79.2583C326.084 78.0229 328.51 77.4053 331.267 77.4053C335.188 77.4053 338.384 78.6048 340.854 81.0039C343.343 83.403 344.731 86.6615 345.017 90.7793L345.071 92.7666C345.071 97.2246 343.826 100.805 341.338 103.509C338.849 106.194 335.51 107.537 331.321 107.537C327.131 107.537 323.783 106.194 321.277 103.509C318.788 100.823 317.544 97.1709 317.544 92.5518V92.2026ZM325.305 92.7666C325.305 95.5238 325.824 97.6364 326.863 99.1045C327.901 100.555 329.387 101.28 331.321 101.28C333.201 101.28 334.669 100.564 335.725 99.1313C336.781 97.6812 337.31 95.3716 337.31 92.2026C337.31 89.4992 336.781 87.4045 335.725 85.9185C334.669 84.4325 333.183 83.6895 331.267 83.6895C329.369 83.6895 327.901 84.4325 326.863 85.9185C325.824 87.3866 325.305 89.6693 325.305 92.7666ZM361.936 101.28C363.368 101.28 364.532 100.886 365.427 100.098C366.322 99.3104 366.788 98.263 366.824 96.9561H374.102C374.084 98.9255 373.547 100.734 372.49 102.381C371.434 104.01 369.984 105.281 368.14 106.194C366.313 107.09 364.29 107.537 362.07 107.537C357.917 107.537 354.64 106.221 352.241 103.589C349.842 100.94 348.643 97.2873 348.643 92.6323V92.1221C348.643 87.6462 349.833 84.0744 352.214 81.4067C354.596 78.7391 357.863 77.4053 362.017 77.4053C365.651 77.4053 368.56 78.4437 370.745 80.5205C372.947 82.5794 374.066 85.3276 374.102 88.7651H366.824C366.788 87.2612 366.322 86.0438 365.427 85.1128C364.532 84.1639 363.35 83.6895 361.882 83.6895C360.074 83.6895 358.704 84.3519 357.773 85.6768C356.86 86.9837 356.404 89.1143 356.404 92.0684V92.874C356.404 95.8639 356.86 98.0124 357.773 99.3193C358.687 100.626 360.074 101.28 361.936 101.28ZM387.825 70.7988V77.9424H392.793V83.6357H387.825V98.1377C387.825 99.2119 388.031 99.9818 388.442 100.447C388.854 100.913 389.642 101.146 390.806 101.146C391.665 101.146 392.426 101.083 393.088 100.958V106.839C391.567 107.304 390 107.537 388.389 107.537C382.946 107.537 380.171 104.789 380.063 99.2925V83.6357H375.82V77.9424H380.063V70.7988H387.825ZM410.491 107.537C406.23 107.537 402.756 106.23 400.071 103.616C397.403 101.002 396.069 97.52 396.069 93.1694V92.4175C396.069 89.4992 396.633 86.8942 397.761 84.6025C398.889 82.293 400.483 80.5205 402.542 79.2852C404.618 78.0319 406.982 77.4053 409.631 77.4053C413.606 77.4053 416.73 78.6585 419.004 81.165C421.296 83.6715 422.441 87.2254 422.441 91.8267V94.9956H403.938C404.189 96.8934 404.941 98.4152 406.194 99.561C407.465 100.707 409.067 101.28 411.001 101.28C413.991 101.28 416.327 100.197 418.01 98.0303L421.824 102.3C420.66 103.947 419.084 105.236 417.097 106.167C415.11 107.081 412.908 107.537 410.491 107.537ZM409.604 83.6895C408.065 83.6895 406.812 84.2087 405.845 85.2471C404.896 86.2855 404.287 87.7715 404.019 89.7051H414.814V89.0874C414.779 87.3687 414.313 86.0438 413.418 85.1128C412.523 84.1639 411.252 83.6895 409.604 83.6895ZM444.275 104.046C442.359 106.373 439.709 107.537 436.326 107.537C433.21 107.537 430.829 106.642 429.182 104.852C427.553 103.061 426.72 100.438 426.685 96.9829V77.9424H434.446V96.7144C434.446 99.7401 435.824 101.253 438.582 101.253C441.213 101.253 443.022 100.34 444.006 98.5137V77.9424H451.794V107H444.49L444.275 104.046ZM473.977 85.2202C472.921 85.077 471.99 85.0054 471.184 85.0054C468.248 85.0054 466.323 85.999 465.41 87.9863V107H457.649V77.9424H464.98L465.195 81.4067C466.753 78.7391 468.91 77.4053 471.667 77.4053C472.527 77.4053 473.333 77.5216 474.084 77.7544L473.977 85.2202ZM485.632 94.9956H479.187L478.274 67.8984H486.545L485.632 94.9956ZM482.41 99.2388C483.717 99.2388 484.764 99.6237 485.552 100.394C486.357 101.163 486.76 102.148 486.76 103.348C486.76 104.529 486.357 105.505 485.552 106.275C484.764 107.045 483.717 107.43 482.41 107.43C481.121 107.43 480.073 107.045 479.268 106.275C478.48 105.505 478.086 104.529 478.086 103.348C478.086 102.166 478.48 101.19 479.268 100.42C480.073 99.6326 481.121 99.2388 482.41 99.2388Z" fill="white"/>
<path d="M283.491 107H282.491V108H283.491V107ZM283.491 67.8984V66.8984H282.491V67.8984H283.491ZM304.734 70.2349L304.235 71.1014L304.241 71.1052L304.734 70.2349ZM311.099 76.8413L310.216 77.3105L310.217 77.3128L311.099 76.8413ZM311.125 98.0571L310.243 97.5877L310.24 97.5921L311.125 98.0571ZM295.603 107V108L295.608 108L295.603 107ZM291.548 74.4243V73.4243H290.548V74.4243H291.548ZM291.548 100.528H290.548V101.528H291.548V100.528ZM305.217 88.604L306.217 88.6133V88.604H305.217ZM302.747 77.5127L301.966 78.1374L301.968 78.1407L302.747 77.5127ZM284.491 107V67.8984H282.491V107H284.491ZM283.491 68.8984H295.522V66.8984H283.491V68.8984ZM295.522 68.8984C298.803 68.8984 301.698 69.6399 304.235 71.1013L305.233 69.3684C302.363 67.7146 299.117 66.8984 295.522 66.8984V68.8984ZM304.241 71.1052C306.791 72.5475 308.78 74.6075 310.216 77.3105L311.982 76.3722C310.374 73.346 308.12 71.0017 305.226 69.3645L304.241 71.1052ZM310.217 77.3128C311.652 79.9969 312.381 83.072 312.381 86.563H314.381C314.381 82.7851 313.589 79.379 311.981 76.3699L310.217 77.3128ZM312.381 86.563V88.3623H314.381V86.563H312.381ZM312.381 88.3623C312.381 91.8553 311.66 94.9219 310.243 97.5877L312.008 98.5266C313.599 95.5348 314.381 92.1382 314.381 88.3623H312.381ZM310.24 97.5921C308.841 100.256 306.871 102.308 304.318 103.769L305.311 105.505C308.201 103.851 310.438 101.516 312.011 98.5222L310.24 97.5921ZM304.318 103.769C301.759 105.233 298.861 105.983 295.598 106L295.608 108C299.184 107.981 302.427 107.156 305.311 105.505L304.318 103.769ZM295.603 106H283.491V108H295.603V106ZM290.548 74.4243V100.528H292.548V74.4243H290.548ZM291.548 101.528H295.442V99.5278H291.548V101.528ZM295.442 101.528C298.831 101.528 301.552 100.407 303.444 98.0683L301.888 96.8106C300.45 98.5893 298.355 99.5278 295.442 99.5278V101.528ZM303.444 98.0683C305.302 95.7705 306.18 92.5725 306.217 88.6133L304.217 88.5947C304.183 92.2983 303.36 94.9906 301.888 96.8106L303.444 98.0683ZM306.217 88.604V86.5361H304.217V88.604H306.217ZM306.217 86.5361C306.217 82.4455 305.373 79.1748 303.525 76.8847L301.968 78.1407C303.414 79.9326 304.217 82.6775 304.217 86.5361H306.217ZM303.527 76.888C301.652 74.5433 298.927 73.4243 295.522 73.4243V75.4243C298.456 75.4243 300.547 76.3642 301.966 78.1374L303.527 76.888ZM295.522 73.4243H291.548V75.4243H295.522V73.4243ZM319.209 84.4951L318.312 84.0536L319.209 84.4951ZM323.989 79.2583L323.481 78.3969L323.478 78.3989L323.989 79.2583ZM340.854 81.0039L340.158 81.7213L340.16 81.7238L340.854 81.0039ZM345.017 90.7793L346.017 90.7523L346.016 90.7311L346.015 90.7099L345.017 90.7793ZM345.071 92.7666H346.071V92.7531L346.07 92.7396L345.071 92.7666ZM341.338 103.509L342.071 104.188L342.074 104.186L341.338 103.509ZM321.277 103.509L320.543 104.188L320.546 104.191L321.277 103.509ZM326.863 99.1045L326.046 99.682L326.05 99.6867L326.863 99.1045ZM335.725 99.1313L336.53 99.7249L336.533 99.7201L335.725 99.1313ZM326.863 85.9185L327.679 86.4959L327.682 86.4913L326.863 85.9185ZM318.544 92.2026C318.544 89.4508 319.073 87.0363 320.106 84.9366L318.312 84.0536C317.125 86.4657 316.544 89.1895 316.544 92.2026H318.544ZM320.106 84.9366C321.134 82.8471 322.597 81.25 324.5 80.1177L323.478 78.3989C321.228 79.7373 319.504 81.6314 318.312 84.0536L320.106 84.9366ZM324.497 80.1197C326.418 78.9867 328.664 78.4053 331.267 78.4053V76.4053C328.356 76.4053 325.75 77.0592 323.481 78.3969L324.497 80.1197ZM331.267 78.4053C334.967 78.4053 337.9 79.5289 340.158 81.7213L341.551 80.2865C338.868 77.6807 335.409 76.4053 331.267 76.4053V78.4053ZM340.16 81.7238C342.437 83.9189 343.747 86.9272 344.02 90.8487L346.015 90.7099C345.715 86.3957 344.249 82.8871 341.549 80.284L340.16 81.7238ZM344.017 90.8063L344.071 92.7936L346.07 92.7396L346.017 90.7523L344.017 90.8063ZM344.071 92.7666C344.071 97.0301 342.886 100.35 340.602 102.832L342.074 104.186C344.767 101.26 346.071 97.4192 346.071 92.7666H344.071ZM340.604 102.829C338.333 105.28 335.276 106.537 331.321 106.537V108.537C335.745 108.537 339.365 107.109 342.071 104.188L340.604 102.829ZM331.321 106.537C327.366 106.537 324.298 105.28 322.008 102.826L320.546 104.191C323.269 107.109 326.897 108.537 331.321 108.537V106.537ZM322.01 102.829C319.735 100.373 318.544 96.9875 318.544 92.5518H316.544C316.544 97.3543 317.842 101.273 320.543 104.188L322.01 102.829ZM318.544 92.5518V92.2026H316.544V92.5518H318.544ZM324.305 92.7666C324.305 95.6274 324.84 97.9767 326.046 99.682L327.679 98.527C326.809 97.2961 326.305 95.4202 326.305 92.7666H324.305ZM326.05 99.6867C327.294 101.424 329.096 102.28 331.321 102.28V100.28C329.678 100.28 328.509 99.6855 327.676 98.5223L326.05 99.6867ZM331.321 102.28C333.497 102.28 335.273 101.429 336.53 99.7249L334.92 98.5378C334.065 99.6981 332.904 100.28 331.321 100.28V102.28ZM336.533 99.7201C337.778 98.0111 338.31 95.4398 338.31 92.2026H336.31C336.31 95.3034 335.785 97.3512 334.917 98.5426L336.533 99.7201ZM338.31 92.2026C338.31 89.3867 337.762 87.0581 336.54 85.3391L334.91 86.4978C335.801 87.7508 336.31 89.6117 336.31 92.2026H338.31ZM336.54 85.3391C335.285 83.5738 333.487 82.6895 331.267 82.6895V84.6895C332.878 84.6895 334.052 85.2911 334.91 86.4978L336.54 85.3391ZM331.267 82.6895C329.061 82.6895 327.279 83.5774 326.043 85.3457L327.682 86.4913C328.524 85.2875 329.678 84.6895 331.267 84.6895V82.6895ZM326.046 85.341C324.83 87.0613 324.305 89.5956 324.305 92.7666H326.305C326.305 89.7429 326.819 87.7118 327.679 86.4959L326.046 85.341ZM365.427 100.098L364.767 99.3474L365.427 100.098ZM366.824 96.9561V95.9561H365.851L365.824 96.9287L366.824 96.9561ZM374.102 96.9561L375.102 96.9651L375.111 95.9561H374.102V96.9561ZM372.49 102.381L373.329 102.925L373.332 102.921L372.49 102.381ZM368.14 106.194L368.58 107.092L368.583 107.09L368.14 106.194ZM352.241 103.589L351.5 104.261L351.502 104.263L352.241 103.589ZM352.214 81.4067L351.468 80.7408L352.214 81.4067ZM370.745 80.5205L370.056 81.2452L370.062 81.251L370.745 80.5205ZM374.102 88.7651V89.7651H375.112L375.102 88.7547L374.102 88.7651ZM366.824 88.7651L365.824 88.7889L365.847 89.7651H366.824V88.7651ZM365.427 85.1128L364.7 85.799L364.706 85.8059L365.427 85.1128ZM357.773 85.6768L356.955 85.1018L356.954 85.104L357.773 85.6768ZM357.773 99.3193L356.954 99.892L357.773 99.3193ZM361.936 102.28C363.56 102.28 364.975 101.828 366.088 100.849L364.767 99.3474C364.089 99.9436 363.176 100.28 361.936 100.28V102.28ZM366.088 100.849C367.213 99.8587 367.781 98.5383 367.823 96.9834L365.824 96.9287C365.795 97.9877 365.432 98.762 364.767 99.3474L366.088 100.849ZM366.824 97.9561H374.102V95.9561H366.824V97.9561ZM373.102 96.947C373.085 98.7294 372.602 100.353 371.648 101.841L373.332 102.921C374.491 101.114 375.082 99.1215 375.102 96.9651L373.102 96.947ZM371.651 101.837C370.698 103.306 369.389 104.46 367.696 105.298L368.583 107.09C370.578 106.103 372.169 104.714 373.329 102.925L371.651 101.837ZM367.699 105.296C366.023 106.118 364.152 106.537 362.07 106.537V108.537C364.429 108.537 366.604 108.061 368.58 107.092L367.699 105.296ZM362.07 106.537C358.147 106.537 355.158 105.305 352.98 102.916L351.502 104.263C354.123 107.138 357.687 108.537 362.07 108.537V106.537ZM352.983 102.918C350.795 100.502 349.643 97.1162 349.643 92.6323H347.643C347.643 97.4584 348.889 101.377 351.5 104.261L352.983 102.918ZM349.643 92.6323V92.1221H347.643V92.6323H349.643ZM349.643 92.1221C349.643 87.8276 350.781 84.5142 352.96 82.0727L351.468 80.7408C348.885 83.6345 347.643 87.4647 347.643 92.1221H349.643ZM352.96 82.0727C355.121 79.6527 358.097 78.4053 362.017 78.4053V76.4053C357.629 76.4053 354.071 77.8255 351.468 80.7408L352.96 82.0727ZM362.017 78.4053C365.451 78.4053 368.094 79.3803 370.056 81.2452L371.434 79.7958C369.027 77.5071 365.852 76.4053 362.017 76.4053V78.4053ZM370.062 81.251C372.035 83.0964 373.068 85.5693 373.102 88.7756L375.102 88.7547C375.063 85.086 373.858 82.0624 371.428 79.79L370.062 81.251ZM374.102 87.7651H366.824V89.7651H374.102V87.7651ZM367.823 88.7413C367.783 87.0312 367.245 85.5604 366.148 84.4197L364.706 85.8059C365.4 86.5272 365.793 87.4912 365.824 88.7889L367.823 88.7413ZM366.155 84.4266C365.046 83.2513 363.588 82.6895 361.882 82.6895V84.6895C363.113 84.6895 364.018 85.0765 364.7 85.799L366.155 84.4266ZM361.882 82.6895C359.793 82.6895 358.098 83.4762 356.955 85.1018L358.592 86.2517C359.311 85.2275 360.356 84.6895 361.882 84.6895V82.6895ZM356.954 85.104C355.859 86.6703 355.404 89.0599 355.404 92.0684H357.404C357.404 89.1687 357.861 87.2972 358.593 86.2495L356.954 85.104ZM355.404 92.0684V92.874H357.404V92.0684H355.404ZM355.404 92.874C355.404 95.9152 355.859 98.3245 356.954 99.892L358.593 98.7466C357.862 97.7003 357.404 95.8126 357.404 92.874H355.404ZM356.954 99.892C358.087 101.515 359.81 102.28 361.936 102.28V100.28C360.338 100.28 359.286 99.738 358.593 98.7466L356.954 99.892ZM387.825 70.7988H388.825V69.7988H387.825V70.7988ZM387.825 77.9424H386.825V78.9424H387.825V77.9424ZM392.793 77.9424H393.793V76.9424H392.793V77.9424ZM392.793 83.6357V84.6357H393.793V83.6357H392.793ZM387.825 83.6357V82.6357H386.825V83.6357H387.825ZM388.442 100.447L389.191 99.7847L388.442 100.447ZM393.088 100.958H394.088V99.7506L392.902 99.9749L393.088 100.958ZM393.088 106.839L393.381 107.795L394.088 107.579V106.839H393.088ZM380.063 99.2925H379.063V99.3023L379.064 99.312L380.063 99.2925ZM380.063 83.6357H381.063V82.6357H380.063V83.6357ZM375.82 83.6357H374.82V84.6357H375.82V83.6357ZM375.82 77.9424V76.9424H374.82V77.9424H375.82ZM380.063 77.9424V78.9424H381.063V77.9424H380.063ZM380.063 70.7988V69.7988H379.063V70.7988H380.063ZM386.825 70.7988V77.9424H388.825V70.7988H386.825ZM387.825 78.9424H392.793V76.9424H387.825V78.9424ZM391.793 77.9424V83.6357H393.793V77.9424H391.793ZM392.793 82.6357H387.825V84.6357H392.793V82.6357ZM386.825 83.6357V98.1377H388.825V83.6357H386.825ZM386.825 98.1377C386.825 99.2934 387.037 100.368 387.693 101.11L389.191 99.7847C389.024 99.5952 388.825 99.1304 388.825 98.1377H386.825ZM387.693 101.11C388.406 101.916 389.584 102.146 390.806 102.146V100.146C389.7 100.146 389.302 99.9096 389.191 99.7847L387.693 101.11ZM390.806 102.146C391.711 102.146 392.537 102.08 393.274 101.94L392.902 99.9749C392.315 100.086 391.619 100.146 390.806 100.146V102.146ZM392.088 100.958V106.839H394.088V100.958H392.088ZM392.796 105.883C391.37 106.319 389.902 106.537 388.389 106.537V108.537C390.098 108.537 391.763 108.29 393.381 107.795L392.796 105.883ZM388.389 106.537C385.826 106.537 384.066 105.891 382.929 104.765C381.79 103.638 381.114 101.868 381.063 99.2729L379.064 99.312C379.12 102.213 379.885 104.566 381.522 106.186C383.16 107.809 385.509 108.537 388.389 108.537V106.537ZM381.063 99.2925V83.6357H379.063V99.2925H381.063ZM380.063 82.6357H375.82V84.6357H380.063V82.6357ZM376.82 83.6357V77.9424H374.82V83.6357H376.82ZM375.82 78.9424H380.063V76.9424H375.82V78.9424ZM381.063 77.9424V70.7988H379.063V77.9424H381.063ZM380.063 71.7988H387.825V69.7988H380.063V71.7988ZM400.071 103.616L399.371 104.33L399.373 104.333L400.071 103.616ZM397.761 84.6025L398.658 85.0441L398.66 85.0414L397.761 84.6025ZM402.542 79.2852L403.056 80.1427L403.058 80.1413L402.542 79.2852ZM419.004 81.165L418.263 81.8369L418.266 81.8398L419.004 81.165ZM422.441 94.9956V95.9956H423.441V94.9956H422.441ZM403.938 94.9956V93.9956H402.797L402.947 95.1265L403.938 94.9956ZM406.194 99.561L405.519 100.299L405.524 100.304L406.194 99.561ZM418.01 98.0303L418.756 97.3642L417.957 96.4691L417.221 97.4168L418.01 98.0303ZM421.824 102.3L422.64 102.877L423.1 102.228L422.57 101.634L421.824 102.3ZM417.097 106.167L417.515 107.076L417.521 107.073L417.097 106.167ZM405.845 85.2471L405.113 84.5656L405.107 84.5725L405.845 85.2471ZM404.019 89.7051L403.028 89.5675L402.87 90.7051H404.019V89.7051ZM414.814 89.7051V90.7051H415.814V89.7051H414.814ZM414.814 89.0874H415.814V89.077L415.814 89.0666L414.814 89.0874ZM413.418 85.1128L412.691 85.799L412.697 85.8059L413.418 85.1128ZM410.491 106.537C406.452 106.537 403.241 105.307 400.768 102.9L399.373 104.333C402.272 107.154 406.008 108.537 410.491 108.537V106.537ZM400.771 102.902C398.327 100.507 397.069 97.2993 397.069 93.1694H395.069C395.069 97.7407 396.48 101.497 399.371 104.33L400.771 102.902ZM397.069 93.1694V92.4175H395.069V93.1694H397.069ZM397.069 92.4175C397.069 89.6304 397.607 87.18 398.658 85.0441L396.864 84.1609C395.659 86.6084 395.069 89.368 395.069 92.4175H397.069ZM398.66 85.0414C399.709 82.8927 401.175 81.2714 403.056 80.1426L402.027 78.4277C399.79 79.7696 398.069 81.6932 396.863 84.1637L398.66 85.0414ZM403.058 80.1413C404.965 78.9908 407.146 78.4053 409.631 78.4053V76.4053C406.817 76.4053 404.272 77.073 402.025 78.429L403.058 80.1413ZM409.631 78.4053C413.378 78.4053 416.212 79.5762 418.263 81.8369L419.745 80.4932C417.248 77.7409 413.834 76.4053 409.631 76.4053V78.4053ZM418.266 81.8398C420.337 84.105 421.441 87.3854 421.441 91.8267H423.441C423.441 87.0655 422.254 83.2381 419.742 80.4903L418.266 81.8398ZM421.441 91.8267V94.9956H423.441V91.8267H421.441ZM422.441 93.9956H403.938V95.9956H422.441V93.9956ZM402.947 95.1265C403.224 97.2261 404.07 98.9742 405.519 100.299L406.869 98.823C405.811 97.8562 405.153 96.5607 404.929 94.8647L402.947 95.1265ZM405.524 100.304C407.003 101.637 408.855 102.28 411.001 102.28V100.28C409.28 100.28 407.927 99.7768 406.863 98.8183L405.524 100.304ZM411.001 102.28C414.268 102.28 416.909 101.078 418.8 98.6438L417.221 97.4168C415.746 99.3151 413.714 100.28 411.001 100.28V102.28ZM417.264 98.6964L421.078 102.966L422.57 101.634L418.756 97.3642L417.264 98.6964ZM421.007 101.723C419.952 103.216 418.517 104.398 416.673 105.262L417.521 107.073C419.652 106.075 421.368 104.678 422.64 102.877L421.007 101.723ZM416.68 105.259C414.837 106.106 412.779 106.537 410.491 106.537V108.537C413.037 108.537 415.383 108.055 417.515 107.076L416.68 105.259ZM409.604 82.6895C407.814 82.6895 406.286 83.3055 405.113 84.5657L406.577 85.9285C407.337 85.1118 408.316 84.6895 409.604 84.6895V82.6895ZM405.107 84.5725C403.978 85.808 403.314 87.5088 403.028 89.5675L405.009 89.8426C405.26 88.0341 405.814 86.763 406.583 85.9216L405.107 84.5725ZM404.019 90.7051H414.814V88.7051H404.019V90.7051ZM415.814 89.7051V89.0874H413.814V89.7051H415.814ZM415.814 89.0666C415.775 87.1816 415.259 85.5849 414.139 84.4197L412.697 85.8059C413.367 86.5027 413.782 87.5557 413.815 89.1082L415.814 89.0666ZM414.145 84.4266C413.014 83.2277 411.45 82.6895 409.604 82.6895V84.6895C411.053 84.6895 412.031 85.1001 412.691 85.799L414.145 84.4266ZM444.275 104.046L445.272 103.973L445.091 101.481L443.503 103.41L444.275 104.046ZM429.182 104.852L428.443 105.525L428.446 105.529L429.182 104.852ZM426.685 96.9829H425.685L425.685 96.9933L426.685 96.9829ZM426.685 77.9424V76.9424H425.685V77.9424H426.685ZM434.446 77.9424H435.446V76.9424H434.446V77.9424ZM444.006 98.5137L444.887 98.9883L445.006 98.7661V98.5137H444.006ZM444.006 77.9424V76.9424H443.006V77.9424H444.006ZM451.794 77.9424H452.794V76.9424H451.794V77.9424ZM451.794 107V108H452.794V107H451.794ZM444.49 107L443.492 107.073L443.56 108H444.49V107ZM443.503 103.41C441.802 105.477 439.452 106.537 436.326 106.537V108.537C439.967 108.537 442.917 107.27 445.047 104.681L443.503 103.41ZM436.326 106.537C433.407 106.537 431.326 105.705 429.918 104.175L428.446 105.529C430.333 107.579 433.014 108.537 436.326 108.537V106.537ZM429.922 104.179C428.516 102.634 427.719 100.287 427.685 96.9725L425.685 96.9933C425.722 100.59 426.59 103.488 428.443 105.525L429.922 104.179ZM427.685 96.9829V77.9424H425.685V96.9829H427.685ZM426.685 78.9424H434.446V76.9424H426.685V78.9424ZM433.446 77.9424V96.7144H435.446V77.9424H433.446ZM433.446 96.7144C433.446 98.3595 433.819 99.78 434.741 100.792C435.679 101.821 437.024 102.253 438.582 102.253V100.253C437.382 100.253 436.659 99.9282 436.219 99.4447C435.762 98.9437 435.446 98.0949 435.446 96.7144H433.446ZM438.582 102.253C441.465 102.253 443.678 101.229 444.887 98.9883L443.126 98.0391C442.365 99.451 440.962 100.253 438.582 100.253V102.253ZM445.006 98.5137V77.9424H443.006V98.5137H445.006ZM444.006 78.9424H451.794V76.9424H444.006V78.9424ZM450.794 77.9424V107H452.794V77.9424H450.794ZM451.794 106H444.49V108H451.794V106ZM445.487 106.927L445.272 103.973L443.278 104.118L443.492 107.073L445.487 106.927ZM473.977 85.2202L473.843 86.2111L474.961 86.3627L474.977 85.2346L473.977 85.2202ZM465.41 87.9863L464.501 87.5688L464.41 87.7676V87.9863H465.41ZM465.41 107V108H466.41V107H465.41ZM457.649 107H456.649V108H457.649V107ZM457.649 77.9424V76.9424H456.649V77.9424H457.649ZM464.98 77.9424L465.979 77.8805L465.92 76.9424H464.98V77.9424ZM465.195 81.4067L464.197 81.4686L464.401 84.7507L466.059 81.911L465.195 81.4067ZM474.084 77.7544L475.084 77.7688L475.095 77.0204L474.38 76.7991L474.084 77.7544ZM474.111 84.2293C473.024 84.0818 472.046 84.0054 471.184 84.0054V86.0054C471.933 86.0054 472.818 86.0722 473.843 86.2111L474.111 84.2293ZM471.184 84.0054C468.016 84.0054 465.635 85.102 464.501 87.5688L466.319 88.4038C467.012 86.896 468.48 86.0054 471.184 86.0054V84.0054ZM464.41 87.9863V107H466.41V87.9863H464.41ZM465.41 106H457.649V108H465.41V106ZM458.649 107V77.9424H456.649V107H458.649ZM457.649 78.9424H464.98V76.9424H457.649V78.9424ZM463.982 78.0043L464.197 81.4686L466.193 81.3448L465.979 77.8805L463.982 78.0043ZM466.059 81.911C467.463 79.5059 469.315 78.4053 471.667 78.4053V76.4053C468.506 76.4053 466.043 77.9723 464.332 80.9025L466.059 81.911ZM471.667 78.4053C472.436 78.4053 473.141 78.5092 473.789 78.7097L474.38 76.7991C473.524 76.5341 472.618 76.4053 471.667 76.4053V78.4053ZM473.085 77.74L472.977 85.2058L474.977 85.2346L475.084 77.7688L473.085 77.74ZM485.632 94.9956V95.9956H486.599L486.632 95.0293L485.632 94.9956ZM479.187 94.9956L478.188 95.0293L478.22 95.9956H479.187V94.9956ZM478.274 67.8984V66.8984H477.24L477.274 67.9321L478.274 67.8984ZM486.545 67.8984L487.545 67.9321L487.58 66.8984H486.545V67.8984ZM485.552 100.394L484.853 101.109L484.861 101.117L485.552 100.394ZM485.552 106.275L484.861 105.552L484.853 105.56L485.552 106.275ZM479.268 106.275L478.569 106.99L478.577 106.998L479.268 106.275ZM479.268 100.42L479.967 101.136L479.967 101.135L479.268 100.42ZM485.632 93.9956H479.187V95.9956H485.632V93.9956ZM480.186 94.9619L479.273 67.8648L477.274 67.9321L478.188 95.0293L480.186 94.9619ZM478.274 68.8984H486.545V66.8984H478.274V68.8984ZM485.546 67.8648L484.633 94.9619L486.632 95.0293L487.545 67.9321L485.546 67.8648ZM482.41 100.239C483.508 100.239 484.286 100.555 484.853 101.109L486.251 99.6784C485.242 98.6924 483.926 98.2388 482.41 98.2388V100.239ZM484.861 101.117C485.453 101.682 485.76 102.398 485.76 103.348H487.76C487.76 101.898 487.262 100.645 486.243 99.6706L484.861 101.117ZM485.76 103.348C485.76 104.275 485.456 104.983 484.861 105.552L486.243 106.998C487.259 106.027 487.76 104.784 487.76 103.348H485.76ZM484.853 105.56C484.286 106.114 483.508 106.43 482.41 106.43V108.43C483.926 108.43 485.242 107.976 486.251 106.99L484.853 105.56ZM482.41 106.43C481.335 106.43 480.549 106.116 479.958 105.552L478.577 106.998C479.598 107.973 480.907 108.43 482.41 108.43V106.43ZM479.967 105.56C479.386 104.993 479.086 104.282 479.086 103.348H477.086C477.086 104.777 477.573 106.017 478.569 106.99L479.967 105.56ZM479.086 103.348C479.086 102.413 479.386 101.703 479.967 101.136L478.569 99.7052C477.573 100.678 477.086 101.919 477.086 103.348H479.086ZM479.967 101.135C480.558 100.557 481.341 100.239 482.41 100.239V98.2388C480.9 98.2388 479.588 98.7083 478.568 99.7054L479.967 101.135Z" fill="#524AA5"/>
<path d="M144.975 211.097C131.043 220.018 114.902 224.883 98.3611 225.146C81.8201 225.409 65.5326 221.061 51.3242 212.587C53.8237 207.935 56.9908 203.673 60.7246 199.937C66.4858 194.149 73.4971 189.758 81.2202 187.102C88.9432 184.446 97.1722 183.596 105.275 184.616C113.378 185.637 121.139 188.502 127.962 192.99C134.785 197.478 140.489 203.471 144.634 210.507C144.744 210.697 144.864 210.897 144.975 211.097Z" fill="#594ECD"/>
<path d="M94.2394 163.277C118.651 163.277 138.441 143.487 138.441 119.075C138.441 94.6636 118.651 74.8739 94.2394 74.8739C69.8276 74.8739 50.0378 94.6636 50.0378 119.075C50.0378 143.487 69.8276 163.277 94.2394 163.277Z" fill="#2F2E41"/>
<path d="M127.129 150.253C135.844 134.31 129.985 114.321 114.043 105.606C98.1002 96.8913 78.1113 102.75 69.3963 118.693C60.6813 134.636 66.5405 154.624 82.483 163.339C98.4256 172.054 118.414 166.195 127.129 150.253Z" fill="#FFB8B8"/>
<path d="M63.6947 113.78C71.2124 118.962 80.1353 121.719 89.2656 121.683C86.0087 123.941 82.301 125.466 78.3979 126.154C90.5372 128.758 103.083 128.828 115.251 126.361C117.956 125.927 120.566 125.031 122.966 123.711C124.162 123.043 125.204 122.131 126.025 121.033C126.845 119.936 127.426 118.679 127.728 117.342C128.537 112.723 124.937 108.527 121.197 105.699C115.47 101.434 108.867 98.4964 101.865 97.0973C94.8639 95.6982 87.6389 95.8729 80.7131 97.6087C76.1908 98.7777 71.6604 100.753 68.7231 104.384C65.7857 108.016 64.9156 113.615 67.7142 117.355L63.6947 113.78Z" fill="#2F2E41"/>
<path d="M96.9443 226.157C75.2968 226.151 54.3774 218.339 38.0234 204.156C21.6695 189.973 10.9775 170.369 7.90882 148.94C4.8401 127.511 9.60036 105.694 21.3164 87.4908C33.0325 69.2877 50.9189 55.9191 71.6945 49.8372C92.4701 43.7553 114.742 45.3679 134.425 54.3791C154.108 63.3903 169.882 79.196 178.853 98.8968C187.825 118.598 189.393 140.873 183.27 161.636C177.146 182.4 163.742 200.259 145.515 211.939C131.021 221.233 114.162 226.168 96.9443 226.157V226.157ZM96.9443 48.1575C79.5372 48.1558 62.5205 53.3162 48.0464 62.986C33.5722 72.6559 22.2907 86.4008 15.6285 102.483C8.96631 118.564 7.22276 136.261 10.6183 153.333C14.0139 170.406 22.396 186.088 34.7047 198.397C47.0134 210.706 62.6957 219.088 79.7685 222.483C96.8412 225.879 114.537 224.135 130.619 217.473C146.701 210.811 160.446 199.53 170.116 185.055C179.786 170.581 184.946 153.565 184.944 136.157C184.918 112.826 175.638 90.4587 159.141 73.9612C142.643 57.4637 120.275 48.1838 96.9443 48.1575V48.1575Z" fill="#3F3D56"/>
<path d="M250.44 190.768C263.974 190.768 274.944 189.55 274.944 188.048C274.944 186.546 263.974 185.328 250.44 185.328C236.907 185.328 225.936 186.546 225.936 188.048C225.936 189.55 236.907 190.768 250.44 190.768Z" fill="#F2F2F2"/>
</svg>
